<?xml version="1.0" encoding="utf-8"?>
<!-- Generator: Adobe Illustrator 18.1.1, SVG Export Plug-In . SVG Version: 6.00 Build 0)  -->
<!DOCTYPE svg PUBLIC "-//W3C//DTD SVG 1.1//EN" "http://www.w3.org/Graphics/SVG/1.1/DTD/svg11.dtd">
<svg version="1.1" id="Layer_1" xmlns="http://www.w3.org/2000/svg" xmlns:xlink="http://www.w3.org/1999/xlink" x="0px" y="0px"
	 viewBox="0 0 720 720" enable-background="new 0 0 720 720" xml:space="preserve">
<g>
	<path fill="#FFFFFF" stroke="#1D1D1B" stroke-miterlimit="10" d="M715.6,175.4c-0.5-0.2-1-0.3-1.5-0.5c-1.3-0.5-2.6-0.9-3.9-1.3
		c-0.3-0.1-0.7-0.1-1-0.1c-0.8-2.8-2.5-6-7-6.1c-0.1-0.2-0.2-0.4-0.3-0.6c-1.8-5.1-3.6-10.6-5.8-17.4c-1.3-3.9-4.7-6.5-8.6-6.5
		c-2.4,0-4.8,1-6.6,2.9c-0.7,0.7-1.1,1.1-1.3,1.2c-0.1-0.1-0.3-0.3-0.5-0.7c-0.6-0.9-1.5-1.3-2.2-1.6c-0.2-0.1-0.5-0.2-0.8-0.4
		l-1.5-0.8c-0.4-0.2-0.8,0-1,0.3l-0.7,1.5c-3.6,7.8-5.3,15.1-5.1,22.2c0.1,4.8,0,9.9-1.8,15.4c-1.2,3.6-1.8,4.3-2.6,4.2l-1.1-0.1
		l-0.7,0.8c-0.9,1-1.6,1.9-2.2,2.8c-0.9,1.2-1.9,2.5-2.6,2.7c-9.6,3.1-19.8,6.1-31,9c-5.4,1.4-8.9,4-11.3,8.5
		c-1.9,3.5-4.4,6.9-6.6,9.9c-2.1,2.8-2.1,5.4,0.1,8.3c1.2,1.6,1.6,3.2,1.3,4.6c-0.4,1.7-1.8,2.8-2.9,3.4c-2.7,1.6-6.1,2.5-8.9,3.1
		c-2.2,0.5-4.4,0.8-6.7,1.1c-2.2,0.3-4.5,0.6-6.7,1.1c-2.9,0.6-5.8,1.5-6.8,3.9c-0.9,2.4,0.6,4.9,2.3,7.3c1,1.5,1,1.9,0,3.3
		c-7.6,9.9-17.6,16.4-28.1,23.3l-2.6,1.7c-2.4,1.6-4.7,2.3-7.4,2.3c-2.4,0-5-0.7-7-1.3c-0.2-0.1-0.4-0.3-0.6-0.5
		c0.8-1.8,1.2-3.6,1.7-5.4c0.8-3.3,1.4-6.2,4.3-7.9c1.6-1,2-3.5,1.6-4.8c-0.5-1.5-0.9-3.1-1.3-4.6c-1.2-4.4-2.4-8.9-4.4-13.1
		c-1.7-3.5-3.8-5.3-6.3-5.3c-1.8,0-4.1,0.1-4.1-1.2c0.2-4-0.1-8.2-0.9-12.4c-0.4-2.1-2-5.7-4.7-6.8c-4.1-1.7-9.7-4.2-8.5-4.4
		l1.9-0.2c0.5-0.1,0.8-0.5,0.6-1l-4.3-12.5c-0.1-0.4-0.5-0.6-0.9-0.5l-1.4,0.4c-0.7,0.2-1.3,0.4-2,0.5c-1.6,0.4-3.2,0.8-4.8,1.4
		c-0.3,0.1-0.5,0.1-0.6,0.1c-0.1-0.3-0.2-0.7-0.3-1c-0.3-1-0.6-2.2-1.4-3.2l-1-1.3l-1.5,0.5c-1,0.3-1.9,0.7-2.9,1
		c-2.2,0.8-4.4,1.5-6.6,2.4c-1.4,0.6-2.9,1.2-4.3,1.8c-2.4,1-4.7,2-7.1,2.7c-0.8,0.2-1.9,0.4-2.7,0.4c-0.3,0-0.5,0-0.6,0
		c-2.3-3-5.2-4.6-9.2-4.8c-0.3-0.6-0.3-0.5-0.6-1.1l4-6.6c0.2-0.3,0.1-0.6-0.1-0.8l-2.9-3.5l-1.7,1c-0.7,0.4-1.5,0.8-2.3,1.1
		c-2,0.9-4.2,2-5.6,3.9c-3.3,4.5-7.9,7.2-12.8,9.9c-1.3,0.7-2.6,1.5-3.9,2.3c-1.7,1-3,1.5-4.2,1.6c-0.5,0-0.8-0.4-0.7-0.9l1.1-4.8
		c0.1-0.6-0.4-1-1-0.8l-8.1,3.1c-0.7,0.3-1.3-0.5-0.8-1.1c1.8-2.4,3.6-4.5,5.7-6.4c2.7-2.3,6-4,9.5-5.9c1.5-0.8,3.1-1.6,4.7-2.5
		l1.6-0.9l-1.6-4.7l-1.5-0.1c-0.8-0.1-1.7-0.1-2.5-0.2c-1.8-0.1-3.5-0.2-5.2-0.5c-0.6-0.1-1.1-0.2-1.7-0.3c-1.7-0.3-3.4-0.6-5.2-0.6
		c-2.4,0-4.5,0.6-6.4,1.8c-0.1,0.1-0.7,0.2-1.5,0.2c-0.7,0-1.2-0.1-1.3-0.2c-2.3-2.6-5.3-3.2-7.6-3.6c-1-0.2-1.9-0.4-2.8-0.7
		c-0.6-0.2-1.2-0.4-1.8-0.7c-2.3-0.9-4.7-1.8-7.3-1.8c-1.9,0-3.6,0.5-5.3,1.4c-0.2,0.1-0.4,0.1-0.6,0.1c-0.6-0.2-2.2-0.7-3-0.9
		c-4.9-1.3-7.2-2.1-7.1-6.8c0-1.4-0.8-3-2-3.7c-0.7-0.5-2.1-1.2-3.6-1.2c-0.2,0-0.4,0-0.6,0c-2,0.2-3.3,2.9-3.1,4.4
		c0.1,1.1-0.6,1.7-2.5,1.7c-1.4,0-2.8,0.1-4.1,0.2c-0.9,0.1-1.8,0.1-2.8,0.2c-16.2,0.7-32.2,1.1-47.6,1.1c-40.7,0-78.3-2.4-115-7.3
		c-27.5-3.7-55.4-8.5-82.3-13.1c-10.9-1.9-21.8-3.8-32.8-5.6c-5.1-0.8-10.3-1.9-15.3-3c-2.4-0.5-4.7-1-7.1-1.5l-1.9-0.4
		c-0.5-0.1-0.9,0.3-0.9,0.7l0,1.9c0,2.7,0.2,5.3,0.7,7.8c1.8,8.8-0.1,14.5-0.1,14.1c0.1-7.5-3.9-10.2-7.9-11.9l-1-0.3
		c-3.1-1-6.1-2.6-9.2-4.2c-1.5-0.8-2.9-1.5-4.5-2.3l-2.1-1c-0.5-0.2-1,0.1-1,0.6l-0.1,2.3c0,0.4,0,0.8,0,1.3c0,0.8,0,1.6-0.2,2.2
		c-1,3.9-0.3,7.7,0.4,11.3c0.7,3.9,1.4,7.6-0.2,11.2c-0.5,1-0.2,1.9,0.1,2.4c0,0.8-0.1,1.6-0.1,2.4c-0.1,2.5-0.2,4.9-0.7,7.3
		c-0.2,1.3-0.8,2.6-1.4,3.9c-0.5,1.2-1.1,2.5-1.5,3.8c-4,14.1-7.9,25.6-14.2,36.3l-0.1,0.1c-2.8,4.7-5.7,9.5-5.1,15.9
		c0.4,4,0.4,7,0.1,9.7c-0.4,4-1,8.5-2.3,12.7c-0.8,2.6-2.5,5.1-4.1,7.5l-0.8,1.3c-2.5,3.9-2.2,7.3,1.1,10.3
		c2.9,2.7,3.5,6.1,1.9,10.6c-0.2,0.5-0.4,0.9-0.6,1.4c-0.5,1.2-1.1,2.5-1.2,4.1c-0.2,2.9,0.1,5.3,0.9,7.2c1.9,4.2,3.9,8.5,5.9,12.6
		c1.1,2.3,2.3,4.7,3.4,7.1c0,0.1,0,0.3-0.1,0.6c-1.9,6.3-0.3,11.9,4.8,17.2c0.1,0.2,0.1,0.7,0.1,1c-1.9,2-3.5,5.3-1.2,10.2
		c2.4,4.9,5.1,9.9,8,14.8c2.8,4.7,3.5,8.4,2.3,12.4c-0.6,2.1-1.2,4.6,0.1,6.4c1.2,1.8,3.6,2.2,6,2.5c0.5,0.1,1,0.1,1.5,0.2
		c4.3,0.8,7.4,3.6,10.6,6.7c2.2,2.1,4.5,4.2,7.3,5.8c0.3,0.4,0.7,0.9,1,1.2c0.2,0.6,0.4,1.4,0.8,2c0.7,1.1,1.9,2.1,3.2,2.6
		c5.7,1.8,8.7,6,10,13.8l0.1,0.3c1.5,8.8,2.4,9.6,11.6,10.1c2.6,0.1,5.1,0.3,7.7,0.4c2.4,0.1,4.8,0.2,7.3,0.4c2,0.1,4,0.3,6,0.4
		c0,0,0.1,0,0.1,0l0.5,0.6c0.3,0.4,0.6,0.7,0.9,1.1c0.8,1.1,1.8,2.3,3.1,3c16.9,9.2,33.9,18.2,46.7,25c1.5,0.8,3.7,1.8,6,2.1
		c6,0.6,12.1,1.1,18.1,1.7c5.6,0.5,11.2,1,16.8,1.5c2.6,0.3,4.3-0.2,5.5-1.4c1-1.1,1.5-2.6,1.5-4.7c0-1,0.2-1.3,0.2-1.3
		c0,0,0.2-0.2,0.9-0.2c0.3,0,0.6,0,1,0.1c2.6,0.4,5.3,0.6,7.8,0.7c2.9,0.2,5.8,0.4,8.7,0.9c1.5,0.2,3.3,1.2,4.8,2.6
		c4.1,3.8,8.1,7.9,11.9,11.9l1.8,1.9c0.6,0.6,1.1,1.2,1.7,1.7c2,2,3.8,3.8,5.2,5.9c1.2,1.9,1.8,4.6,2.4,7.1l0.1,0.6
		c1.4,5.9,4.9,10.5,10.8,13.8c1,0.6,2.1,1.2,3.2,1.7c1.6,0.8,3.1,1.6,4.5,2.5c3.7,2.4,6.9,1.5,9.1-2.5c0.6-1,1.1-2.1,1.6-3.1
		c0.8-1.5,1.5-3,2.3-4.4c1.5-2.8,3.7-3.7,7-3.2c12.2,1.7,19.7,8.3,23.1,20.3l0.2,0.7c0.5,1.7,1,3.7,2.3,5.2c2.8,3.3,6.3,7,10.1,10.2
		c2,1.7,2.8,3.2,2.9,6c0.7,11.9,12.1,22.7,24.4,23c1.8,0.1,3.7,0.5,5.7,1c1.1,0.3,2.2,0.5,3.3,0.7l0.4,0.1c0.6,0.1,1.3,0.3,2,0.3
		c1.3,0,2-0.6,2.4-1c1.1-1.3,1.5-3.5,1.1-5.1c-0.7-2.2-1.7-4.2-2.7-6.2c-3.6-7.2-1.6-14.6,1-20.9c1.1-2.8,3.6-5.3,6.2-7.9
		c1.1-1.1,2.3-2.3,3.3-3.4c0,0,0.2-0.1,0.7-0.2c10.3-2.1,17.7-8.6,24.8-14.9l0.6-0.5c8.5-7.5,16.6-9.7,25.2-7.2
		c3.9,1.2,8.1,1.5,12,1.9c1.7,0.1,3.5,0.3,5.2,0.5l1.4,0.2c0.4,0,0.7-0.2,0.8-0.6l0.7-2.8c0.1-0.5,0.6-0.7,1.1-0.5
		c1.1,0.6,1.9,1.3,2.2,1.8c1.7,4,4.8,6.2,8.4,6.2c2.1,0,4.3-0.8,6.3-2.3c0.2-0.1,0.4-0.3,0.6-0.4l0.4,1.5c0.1,0.2,0.2,0.4,0.5,0.5
		l3.1,1c0.3,0.1,0.7,0,0.9-0.3l3.1-5.5c0.3,0.2,0.6,0.3,0.9,0.5c2.5,1.2,4.9,2.4,7.5,3.3c0.4,0.1,0.8,0.2,1.2,0.2
		c1.2,0,2.3-0.5,3.3-1c0.4-0.2,0.8-0.4,1.1-0.5l2.1-0.7c0.5-0.2,0.6-0.8,0.3-1.1l-1.4-1.7c-0.2-0.3-0.5-0.6-0.7-0.9
		c-0.7-0.9-1.4-2-2.6-2.8c-1.4-0.9-2.8-1.6-4.1-2.2c-0.4-0.2-0.5-0.6-0.3-1l2.3-4.6c0.2-0.4,0-0.9-0.4-1l-5.1-1.7
		c0.4-0.6,0.9-1.2,1.2-1.3c4.3-1.8,8.1-2.8,11.5-3.1l0.6-0.1c2.6-0.2,5.6-0.5,7.7-2.6c0.4-0.4,1-0.2,1.2,0.3l0.8,2.3
		c0.1,0.4,0.5,0.6,0.9,0.5l1.4-0.4c0.5-0.1,1-0.3,1.5-0.4c1-0.3,2.1-0.6,3.2-0.8c1.3-0.3,2.6-0.5,3.9-0.8c3.5-0.7,7-1.5,10.5-1.8
		c1.1-0.1,2.1-0.1,3-0.1c6.1,0,10.4,1.8,13.6,5.8c1,1.2,2.9,1.9,4.2,1.9c0.5,0,1-0.1,1.5-0.3c0.8-0.4,1.6-0.7,2.4-1
		c3-1.3,6.2-2.6,8.2-5.1c1.4-1.8,2.5-2.1,3.3-2.1c0.7,0,1.5,0.2,2.5,0.6c1.2,0.5,2.4,1.4,3.7,2.4c0.7,0.6,1.5,1.1,2.2,1.6
		c1.1,0.7,2.3,1.4,3.5,2.2c2.4,1.5,4.8,2.9,6.8,4.6c1.4,1.2,2.6,3.4,3.1,5.3c0.4,2.1,0.5,4.4,0.6,6.7c0,1.5,0.1,3,0.2,4.5
		c0.2,1.9,0.5,4.1,1.6,5.9c3.8,6.2,7.8,12.4,11.7,18.1c0.4,0.6,2.3,3.3,4.5,3.3l0.5,0l0.4-0.1c0.4-0.2,0.7-0.2,0.8-0.2
		c0.2,0.1,0.5,0.8,0.7,1.2c0.3,0.5,0.6,1.1,1,1.7c0.2,0.3,0.4,0.6,0.6,0.9c1.2,1.8,2.6,3.9,4.8,4c2.9,0.2,4.4,1.8,6.2,4.6l0.1,0.1
		c2.2,3.5,3.6,5.6,6.6,5.6c1.5,0,3.1-0.6,5.9-1.6c1.8-0.7,4.9-2.2,5.4-4.6c1.3-6.4,2.4-14.1,0.5-22.2c-2.2-9.1-7.1-16.7-11.9-24.1
		l-1.6-2.5c-0.2-0.3-0.5-0.8-0.7-1.2c1.8-3.9-0.9-6.1-2.3-7.4c-0.3-0.3-0.6-0.5-0.9-0.8c-12-12.3-17.5-24.5-17.4-38.6
		c0.1-8.9,4.8-15.9,9.7-22.3c2.4-3.2,5.2-6,8.1-8.9c1.6-1.6,3.2-3.3,4.7-4.9c1.1-1.2,1.1-2.8,1.1-3.9c0.1-6.3,2.9-9.8,8.9-11.5
		c2.1-0.6,4.6-2.7,4.9-5c0.6-4.1,2.6-7,6.7-9.4c0.6-0.3,1.2-0.7,1.8-1c1.8-1,3.7-2,5.4-3.4c1.4-1.1,2.5-2.6,3.6-4.1
		c0.5-0.7,1.1-1.4,1.7-2.2l2-2.5c0.4-0.5,0-1.2-0.6-1.2h-4.4c-0.6,0-1-0.7-0.6-1.2c0.7-0.9,1.5-1.8,2.2-2.6c2.4-2.5,4.9-6,3.5-11.6
		l-1.3-3.3l-0.8-1.8c-0.5-1.1-1-2.1-1.4-3.1c-1.1-2.4-3.8-7.8-5.2-8.8c-0.3-0.2-0.6-0.4-0.8-0.6c-0.6-0.6-1.2-1.2-1.9-1.8
		c-0.2-0.1-0.3-0.3-0.5-0.5l4.8-0.4l0.4-1.5c0.5-1.6,1-3.2,1.5-4.7c1.2-3.7,2.5-7.5,3.3-11.3c1.4-6.4-1-13.4-1-13.4
		c0.4,0.2,0.8,0,1-0.4l0.7-1.6c0.6-1.4,1.2-3.2,2-5c0.3-0.6,0.6-1.2,1-1.8c4.1-7.2,3.2-14.6,1.8-20.3c-0.3-1.3-1.2-2.3-1.9-3
		c-0.2-0.2-0.3-0.5-0.2-0.7c1.6-6.4,6-10.8,14-14.3c0.7-0.3,1.5-0.6,2.2-0.9c2-0.8,4.2-1.7,6.2-2.8c2.8-1.6,5.5-3.3,8.3-5.1
		c0.8-0.5,1.7-1.1,2.6-1.6c0.2-0.1,0.4-0.1,0.6-0.1c0.4,0.1,0.8,0.2,1.2,0.2c2.2,0,3.9-1.4,5.4-2.7c0.7-0.6,1.4-1.2,2.1-1.6
		c3.9-2.1,5-4.9,3.3-8.4c-2-4.1-5.1-5.8-9.2-5.1l-1.9,0.4c-0.5,0.1-0.7,0.6-0.5,1l-0.1,2.1c-0.8,0.3-4.4-3.7-4.5-4.2
		c-0.6-4.5-0.1-9.2,0.4-14.2c0.2-1.9,0.4-3.8,0.5-5.7c0.1-1.2,0.4-1.8,2.3-2.7c3-1.4,7.1-3.2,8.3-6.8c0.6-1.7,3.1,0.4,3.1,0.4
		c0.4,0.6,1.2,0.4,1.3-0.3l1.1-6.1c0.1-0.4,0.5-0.7,0.9-0.6l1.8,0.5c0.4,0.1,0.9-0.2,0.9-0.6l0.2-1.9c0.3-4.1,2.9-6.5,5.9-9.3
		c1.1-1,2.2-2,3.2-3.2c1-1.1,1.5-2.4,1.9-3.6c0.2-0.4,0.3-0.9,0.5-1.3l0.7-1.6c0.2-0.4,0-0.9-0.4-1L715.6,175.4z M487.8,284.3
		c-0.7,1.6-2.4,3.1-4.2,4.6c-0.3,0.3-0.7,0.6-1,0.9c-0.2-0.2-0.4-0.4-0.7-0.6c-1.5-1.4-3-2.8-3.9-4.3c-5.8-10.1-4.9-21.2-3.4-32.7
		c0.5-3.8,1.2-7.7,2-11.5c0.3-1.8,0.7-3.5,1-5.3l0.3-1.9l-4.2-1.4c0,0,2-5,3.1-7.5c0.1-0.1,0.3-0.1,0.5-0.2c0.2-0.1,0.4-0.1,0.6-0.2
		c0.8-0.3,1.6-0.6,2.5-0.9c2.4-0.9,4.9-1.8,7.4-2.5c4.5-1.3,8.2-2.2,11.5-2.8c0.1,0-2.3,2.6-2.8,4.6c-0.4,1.8-0.7,3.5-0.9,5.3
		l-1.8,0.5c-0.2,0.1-0.4,0.1-0.6,0.1c-0.5,0.1-1.3,0.3-1.9,0.8c-0.6,0.6-1.5,1.4-2.1,2.4c-5,8.2-5.1,17.2-5.2,25.9l0,1.4
		c0,1.5,0.9,2.8,1.6,3.8l0.2,0.2C490.4,269.5,491.1,276.7,487.8,284.3z"/>
	<g>
		<path fill="#2C4C9B" d="M239.5,177.3l0.7,1.8l-2.8-2c-3.6-0.3-7.2-0.6-10.8-1l-4.2,3l1.1-3.3c-7.5-0.8-15-1.6-22.4-2.6
			c-9.5-1.3-19-2.6-28.4-4.1l3.3,10l-8.9-6.4l-8.9,6.4l3.4-10.3l-2.6-1.9c-18.1-2.9-36.2-6.2-54.3-9.3l1.5,4.4h11l-8.9,6.6l3.4,10.4
			l-8.9-6.3l-8.9,6.4l3.4-10.5l-8.9-6.6h11l1.7-5c-5.2-0.9-10.4-1.6-15.6-2.5c-7.6-1.2-15-2.9-22.6-4.3c0,8.5,4,16.7-1.6,24.3
			c-0.3,0.4-1.9,2.6-2.7,3.5c-0.2,0.2-0.5,0.1-0.5-0.2c0-2.2-2.1-13-6.6-15.8c0,0-0.1-0.1-0.3-0.2c-0.2-0.1-0.5-0.2-0.7-0.3
			c-2.3-1-7.5-3.3-10.5-4.8l1.9,5.7l7.5-0.3c0.2,0,0.3,0.3,0.2,0.4l-5.6,6.3l3.4,10.3l-8.9-6.4l-0.2,0.1c0.4,3,0.5,6.1-1,9.1
			c-0.1,0.3,0.4,0.8,0.3,1.2c-0.2,3.4-0.2,6.9-0.8,10.3c-0.5,2.7-2.2,5.1-2.9,7.8c-1.5,5.3-3.2,10.8-5,15.8H35l3.4-10.3l3.4,10.3h11
			l-8.9,6.4l3.4,10.3l-8.9-6.4l-8.9,6.4l3.4-10.3l-5.1-3.6c-2.3,6.2-5.1,12.1-8.5,17.9c-1.3,2.1-2.5,4.4-3.5,6.4h4.6l-5.9,4.2
			c-0.2,1.2-0.3,2.5-0.1,3.9c0.2,2.6,0.4,5.3,0.3,7.9c0,0-0.1,1.6-0.1,2.1c-0.5,4.4-1.1,8.8-2.4,13c-1.1,3.3-3.2,6.3-5.2,9.2
			c-1.1,1.7-0.9,4-0.9,4l0.8,2.4c0.3,0.3,0.5,0.8,0.9,1.2c2.2,2.1,3.3,4.2,3.4,7.2h9.3l-8.9,6.1l3.4,10.2l-6.5-4.7
			c0,1.6,0.2,3.2,0.8,4.6c3,6.6,6.3,13,9.4,19.5c0.3,0.5,0.1,1.4-0.1,2c-1.8,5.9,0.2,10.7,4.4,14.9c0.7,0.7,0.8,3.4,0.2,3.9
			c-0.1,0.1-0.1-0.5-0.2,0.5h240V178.9C255,178.5,247.4,177.9,239.5,177.3z M47.3,342.5l-8.9-6.4l-8.9,6.4l3.4-10.2L24,326h11
			l3.4-10.3l3.4,10.3h11l-8.9,6.3L47.3,342.5z M43.9,278.1l3.4,10.2l-8.9-6.4l-8.9,6.3l3.4-10.1L24,272h11l3.4-10.3l3.4,10.3h11
			L43.9,278.1z M79.2,315.2l-8.9-6.4l-8.9,6.4l3.4-10.1l-8.9-6.1h11l3.4-10.3l3.4,10.3h11l-8.9,6.1L79.2,315.2z M75.8,250.4
			l3.4,10.3l-8.9-6.4l-8.9,6.4l3.4-10.3l-8.9-6.4h11l3.4-10.3l3.4,10.3h11L75.8,250.4z M75.8,195.6l3.4,10.4l-8.9-6.3l-8.9,6.4
			l3.4-10.5l-8.9-6.6h11l3.4-10.3l3.4,10.3h11L75.8,195.6z M111.6,342.5l-8.9-6.4l-8.9,6.4l3.4-10.2l-8.9-6.3h11l3.4-10.3l3.4,10.3
			h11l-8.9,6.3L111.6,342.5z M108.2,278.1l3.4,10.2l-8.9-6.4l-8.9,6.3l3.4-10.1l-8.9-6.2h11l3.4-10.3l3.4,10.3h11L108.2,278.1z
			 M108.2,223.4l3.4,10.3l-8.9-6.4l-8.9,6.4l3.4-10.3l-8.9-6.4h11l3.4-10.3l3.4,10.3h11L108.2,223.4z M143.5,315.2l-8.9-6.4
			l-8.9,6.4l3.4-10.1l-8.9-6.1h11l3.4-10.3L138,299h11l-8.9,6.1L143.5,315.2z M140.1,250.4l3.4,10.3l-8.9-6.4l-8.9,6.4l3.4-10.3
			l-8.9-6.4h11l3.4-10.3L138,244h11L140.1,250.4z M140.1,195.6l3.4,10.4l-8.9-6.3l-8.9,6.4l3.4-10.5l-8.9-6.6h11l3.4-10.3L138,189
			h11L140.1,195.6z M175.9,342.5l-8.9-6.4l-8.9,6.4l3.4-10.2l-8.9-6.3h11l3.4-10.3l3.4,10.3h11l-8.9,6.3L175.9,342.5z M172.5,278.1
			l3.4,10.2l-8.9-6.4l-8.9,6.3l3.4-10.1l-8.9-6.2h11l3.4-10.3l3.4,10.3h11L172.5,278.1z M172.5,223.4l3.4,10.3l-8.9-6.4l-8.9,6.4
			l3.4-10.3l-8.9-6.4h11l3.4-10.3l3.4,10.3h11L172.5,223.4z M207.8,315.2l-8.9-6.4l-8.9,6.4l3.4-10.1l-8.9-6.1h11l3.4-10.3l3.4,10.3
			h11l-8.9,6.1L207.8,315.2z M204.4,250.4l3.4,10.3l-8.9-6.4l-8.9,6.4l3.4-10.3l-8.9-6.4h11l3.4-10.3l3.4,10.3h11L204.4,250.4z
			 M204.4,195.6l3.4,10.4l-8.9-6.3l-8.9,6.4l3.4-10.5l-8.9-6.6h11l3.4-10.3l3.4,10.3h11L204.4,195.6z M240.2,342.5l-8.9-6.4
			l-8.9,6.4l3.4-10.2l-8.9-6.3h11l3.4-10.3l3.4,10.3h11l-8.9,6.3L240.2,342.5z M236.8,278.1l3.4,10.2l-8.9-6.4l-8.9,6.3l3.4-10.1
			l-8.9-6.2h11l3.4-10.3l3.4,10.3h11L236.8,278.1z M236.8,223.4l3.4,10.3l-8.9-6.4l-8.9,6.4l3.4-10.3l-8.9-6.4h11l3.4-10.3l3.4,10.3
			h11L236.8,223.4z"/>
		<g>
			<path fill="#E52630" d="M529.3,245.9c0.3,0,1.2,0.6,2.2,2.7c1.8,3.8,3,7.9,4.2,12.3c0.4,1.5,0.8,3,1.3,4.6c0,0,0,0,0,0
				c-4.1,2.7-5.1,6.8-6,10.5c-0.1,0.4-0.2,0.8-0.3,1.1h-36.4c0.5-5.9-1.1-11.6-4.9-16.8l-0.2-0.2c-0.2-0.3-0.7-0.9-0.7-1l0-1.4
				c0.1-6.5,0.2-12.8,2.2-18.5h29.9c0,0.3,0,0.5,0,0.8C521.9,248.9,528.8,245.9,529.3,245.9z"/>
			<g>
				<path fill="#E52630" d="M471.7,251.6c0.4-3.2,1.9-12.4,1.9-12.4l-210.2,0v37.9h208.4C469.7,268.8,470.5,260.3,471.7,251.6z"/>
				<path fill="#E52630" d="M426.6,196.6c3.1-2.7,8.3-6.7,7.3-6.8c-0.6-0.1-1.2-0.2-1.8-0.3c-1.5-0.3-3-0.6-4.4-0.6
					c-1.5,0-2.8,0.4-4.1,1.1c-1.3,0.8-3,0.9-3.8,0.9c-1.2,0-3.4-0.2-4.7-1.6c-1.3-1.5-3-1.9-5.2-2.3c-1.1-0.2-2.3-0.4-3.4-0.8
					c-0.6-0.2-1.2-0.5-1.9-0.7c-2-0.8-3.9-1.5-5.6-1.5c-1.2,0-2.3,0.4-3.4,1.1c-0.5,0.4-1.1,0.5-1.9,0.5c-0.8,0-1.5-0.2-1.8-0.3
					c-0.9-0.3-1.9-0.7-2.9-0.8c-5.3-0.9-9.1-5.5-11.1-8.5c-0.8-1.3-2.6-1.5-3.6-0.4c-1.7,1.8-4.3,3.9-6.9,3.6
					c-1-0.1-1.9,0.1-2.9,0.2c-16.2,0.7-32.3,1.1-47.8,1.1c-18.3,0-36.1-0.5-53.4-1.5v19.7h161.1C425.1,198,425.8,197.3,426.6,196.6z
					"/>
				<path fill="#E52630" d="M360.4,567.2c-2.4-4.8-2.8-9.7-2.2-14.2h-25.7c1.1,9.2,10.3,17.5,19.9,17.8c2.3,0.1,4.5,0.6,6.6,1.1
					c1,0.2,2,0.5,3.1,0.7l0.5,0.1c0.1,0,0.1,0,0.2,0c0-0.1,0-0.1,0-0.1C362.2,570.7,361.3,569,360.4,567.2z"/>
				<path fill="#E52630" d="M613.7,507.2c-1.1-1.6-2.3-3.5-1.3-5.2c0.6-1,0.6-1.1-1-2.5c-0.4-0.4-0.8-0.7-1.2-1.1
					c-7.5-7.7-12.7-15.6-15.6-23.9H232.5c3.4,3.3,6.8,6.8,10,10.1l1.8,1.9c0.5,0.6,1.1,1.1,1.7,1.7c2.1,2,4.2,4.2,5.8,6.7
					c1.7,2.6,2.4,5.7,3,8.5l0.1,0.6c0.8,3.4,2.5,6.1,5.1,8.4h17.2c0.3-0.5,0.5-1,0.8-1.5c2.1-3.8,5.3-5.7,9.5-5.7
					c0.7,0,1.4,0.1,2.2,0.2c6.8,0.9,12.4,3.3,16.9,7.1h92.8c9.3-7.6,18.5-9.9,28.2-7c3.2,0.9,7.1-0.3,7.1-0.3l3.3-1.8
					c1-0.6,2.3-0.9,3.8-0.9c4.4,0,10.5,2.6,12,6.1c0.6,1.3,1.9,3.5,4.2,3.5c1.1,0,2.3-0.5,3.5-1.4c0.8-0.6,1.6-1,2.5-1.5
					c0.4-0.2,0.8-0.4,1.2-0.7l2.6-1.5l0.6,2.4l2.5-4.4l2.8,0.6l2.7-5.4l-6.9-2.3l2-2.5c0.3-0.4,0.7-0.9,1-1.5c0.9-1.5,2-3.1,3.8-3.9
					c4.8-1.9,9-3,12.8-3.4l0.6-0.1c4.1-0.4,5.4-0.6,5.9-3.5c0.2-1.4,1.5-1.8,2.1-2c0.2-0.1,0.5-0.2,0.9-0.3l2.2-0.9l2.2,6.5
					c0.9-0.3,1.9-0.5,2.9-0.7c1.3-0.2,2.6-0.5,3.9-0.8c3.6-0.7,7.3-1.5,11.1-1.8c1.2-0.1,2.3-0.1,3.4-0.1c7.4,0,13,2.5,17.1,7.5
					c0.1,0,0.3,0.1,0.5,0.2c0.7-0.3,1.5-0.7,2.3-1c2.5-1,5.1-2.1,6.3-3.7c2-2.6,4.2-3.9,6.9-3.9c1.3,0,2.6,0.3,4.2,0.9
					c1.8,0.7,3.3,1.9,4.8,3c0.7,0.5,1.3,1,2,1.4c1.1,0.7,2.2,1.4,3.3,2.1c2.5,1.5,5.1,3.1,7.4,5c2.2,1.9,4,4.9,4.6,7.9
					c0.5,2.5,0.6,5.1,0.7,7.5c0,0.9,0.1,1.8,0.1,2.7h32.9c-0.6-0.9-1.2-1.9-1.8-2.8L613.7,507.2z"/>
				<path fill="#E52630" d="M52.8,403.8c2.4,2.2,4.6,4.3,7.3,5.6c1.4,0.7,1.9,2.2,2.2,3.3c0.1,0.4,0.2,0.9,0.4,1.1
					c0.1,0.2,0.4,0.5,0.7,0.5c9.6,3.1,12.1,11.4,13.1,17.3l0.1,0.3c0.1,0.7,0.2,1.3,0.3,1.9h523.6c0.6-0.8,1.2-1.6,1.8-2.4
					c2.6-3.4,5.6-6.4,8.5-9.4c1.5-1.5,3-3.1,4.5-4.7c0.1-0.3,0.1-0.8,0.1-1.1c0.1-8.3,4.3-13.6,12.3-15.8c0.5-0.1,1.4-0.9,1.6-1.3
					c0.2-1.2,0.4-2.3,0.8-3.3H44.5c-0.7,0-1,1-0.3,1.3C47.6,398.9,50.2,401.4,52.8,403.8z"/>
				<path fill="#E52630" d="M644.5,348.3c-0.1-0.1-0.5-0.5-0.8-0.7c-0.4-0.3-0.9-0.7-1.4-1.2c-0.4-0.5-1-1-1.6-1.5
					c-2-1.7-4-3.5-3.7-5.9c0.1-0.7,0.1-1.4,0-2c2.1,0,4,0,5,0.2c0.4,0.1,0.8-0.2,0.9-0.6c1.1-3.4,3.9-12.3,4.4-14.5
					c0.4-1.7,0.5-3.2,0.3-4.5h-19.6h-3.5H263.3v37.9h384.6c-0.1-0.3-0.3-0.7-0.4-1C646.4,352.2,645.5,350.2,644.5,348.3z"/>
				<path fill="#E52630" d="M698.2,241.6c-0.5-1.1-1.1-1.8-1.6-2.2c-5.1,3.1-8.8,2.2-10.9,0.8c-1.2-0.8-2.7-1.1-4.2-1.1l-68.8,0
					c-0.7,0.7-1.5,1.3-2.5,1.9c-3.3,1.9-7,2.9-10.2,3.6c-2.4,0.5-4.8,0.9-7.1,1.2c-2.2,0.3-4.3,0.6-6.4,1.1
					c-2.3,0.5-3.1,0.9-3.4,1.1c0.1,0.3,0.4,1.2,1.7,3c2.2,3.1,2.1,5.7-0.2,8.7c-5.4,7-12,12.5-19,17.5h86.3
					c1.7-8.4,7.1-14.3,16.9-18.6c0.8-0.3,1.5-0.6,2.3-1c2-0.8,3.9-1.6,5.7-2.6c2.7-1.5,5.3-3.2,8.1-4.9c0.6-0.4,1.2-0.8,1.8-1.1
					c1.3-0.9,5.4-0.2,7.3-2.7c0.7-0.9,1.8-1.5,2.9-2.1C698.9,243,698.7,242.7,698.2,241.6z"/>
			</g>
			<path fill="#E52630" d="M711.1,180.4c-0.9,1-1.8,1.9-2.9,2.9c-2.7,2.5-5.6,5.3-6.8,9.6l-3.1-0.9l-0.4,2.2c0,0-4.1-1.1-4.6-0.3
				c-0.3,0.4-1.3,3.7-1.5,4.5c0,0.1-0.1,0.2-0.2,0.2c-2.7-0.1-34.4-0.7-33.5-1c2-0.7,3.4-2.4,4.8-4.3c0.4-0.6,0.9-1.2,1.4-1.8
				c3.7-0.5,4.9-4.2,6-7.2c2.1-6.1,2.2-11.8,2.1-17c-0.1-2.2,0.1-4.4,0.4-6.7H695c0.9,2.6,1.7,5.1,2.6,7.5c0.2,0.6,1.4,3.7,3.7,3.7
				l0.2,0c2-0.2,2.8,0.2,3.7,4.5l0.4,1.9l2-0.2c0.3,0,0.6-0.1,0.9-0.1c0.2,0,0.4-0.1,0.4-0.1c1,0.3,1.9,0.6,2.9,0.9
				C711.6,179.5,711.4,180.1,711.1,180.4z"/>
		</g>
	</g>
</g>
</svg>
